<?xml version="1.0" standalone="no"?><!DOCTYPE svg PUBLIC "-//W3C//DTD SVG 1.1//EN" "http://www.w3.org/Graphics/SVG/1.1/DTD/svg11.dtd"><svg t="1670415675242" class="icon" viewBox="0 0 1024 1024" version="1.1" xmlns="http://www.w3.org/2000/svg" p-id="2073" xmlns:xlink="http://www.w3.org/1999/xlink" width="200" height="200"><path d="M805.386148 772.005315c0-15.546994 12.600624-28.144653 28.138725-28.144653a28.144653 28.144653 0 0 1 28.147617 28.144653v28.138724c0 123.62009-100.212157 223.838176-223.838176 223.838176v-148.72352h92.437178c41.483351 0 75.114655-33.631304 75.114656-75.114656v-28.138724z" fill="#9C7F4D" p-id="2074"></path><path d="M679.96978 1023.982215c41.06837 0 74.358796-33.293391 74.358795-74.364724 0-41.06837-33.290426-74.358796-74.358795-74.358796H237.649657c-41.06837 0-74.36176 33.287462-74.361761 74.358796 0 41.06837 33.290426 74.364724 74.361761 74.364724h442.320123zM619.901176 98.306205c161.958473 0 293.249797 131.291324 293.249796 293.252761 0 194.804276-157.921294 352.719641-352.722605 352.719641H463.571633c-194.801312 0-352.722605-157.915365-352.722605-352.719641 0-161.961437 131.291324-293.252761 293.252761-293.252761h215.799387z" fill="#9C7F4D" p-id="2075"></path><path d="M406.751743 416.475654m-150.33602 0a150.336021 150.336021 0 1 0 300.672041 0 150.336021 150.336021 0 1 0-300.672041 0Z" fill="#BF9B5F" p-id="2076"></path><path d="M406.751743 416.475654m-70.644709 0a70.64471 70.64471 0 1 0 141.289419 0 70.64471 70.64471 0 1 0-141.289419 0Z" fill="#333E48" p-id="2077"></path><path d="M617.239364 416.475654m-150.33602 0a150.336021 150.336021 0 1 0 300.672041 0 150.336021 150.336021 0 1 0-300.672041 0Z" fill="#BF9B5F" p-id="2078"></path><path d="M617.239364 416.475654m-70.644709 0a70.64471 70.64471 0 1 0 141.289419 0 70.64471 70.64471 0 1 0-141.289419 0Z" fill="#333E48" p-id="2079"></path><path d="M838.789212 1023.982215c41.06837 0 74.358796-33.293391 74.358796-74.364724 0-41.06837-33.287462-74.358796-74.358796-74.358796h-188.810754c-35.131167 0-63.622626-28.485531-63.622626-63.622626V160.989194H437.635276v650.649839c0 117.273834 95.072312 212.346146 212.346146 212.346146h188.80779v-0.002964z" fill="#E1CB81" p-id="2080"></path><path d="M437.635276 278.707652h148.72352v12.265673H437.635276zM437.635276 330.319521h148.72352v12.265674H437.635276zM437.635276 381.934354h148.72352v12.265674H437.635276zM437.635276 433.546224h148.72352v12.265674H437.635276zM437.635276 485.158093h148.72352v12.265674H437.635276zM437.635276 536.769962h148.72352v12.26271H437.635276zM437.635276 588.381832h148.72352v12.26271H437.635276zM437.635276 639.993701h148.72352v12.26271H437.635276zM437.635276 691.602606h148.72352v12.265674H437.635276zM437.635276 743.214476h148.72352v12.265674H437.635276z" fill="#9C7F4D" p-id="2081"></path><path d="M838.789212 875.258695h-188.810754c-35.131167 0-63.622626-28.485531-63.622626-63.622626v106.176037c0 58.630989 47.536156 106.167145 106.170109 106.167145h146.263271c41.06837 0 74.358796-33.293391 74.358796-74.364724 0-41.065405-33.287462-74.355832-74.358796-74.355832zM412.110936 77.254776a15.638883 15.638883 0 0 0-15.641847 15.641846v57.184481c0 33.456419 27.113127 60.578439 60.581403 60.578439h109.893088c33.465312 0 60.584367-27.12202 60.584367-60.578439V92.899586a15.641847 15.641847 0 0 0-15.647775-15.641846l-199.769236-0.002964z" fill="#BF9B5F" p-id="2082"></path><path d="M457.047528 177.312797c-18.401475 0-33.382315-14.977876-33.382315-33.382316V98.306205h176.663646v45.62724c0 18.404439-14.977876 33.382315-33.388243 33.382316l-109.893088-0.002964z" fill="#65513C" p-id="2083"></path><path d="M625.307795 98.249886a17.752325 17.752325 0 0 0 17.749361-17.749361v-11.77066C643.057156 30.773859 612.286261 0 574.333219 0h-124.669402c-37.961935 0-68.732829 30.773859-68.732829 68.729865v11.77066a17.752325 17.752325 0 0 0 17.749361 17.749361h226.627446z" fill="#E1CB81" p-id="2084"></path><path d="M424.361789 46.057043m-13.285343 0a13.285343 13.285343 0 1 0 26.570686 0 13.285343 13.285343 0 1 0-26.570686 0Z" fill="#333E48" p-id="2085"></path><path d="M599.635247 46.057043m-13.285344 0a13.285343 13.285343 0 1 0 26.570687 0 13.285343 13.285343 0 1 0-26.570687 0Z" fill="#333E48" p-id="2086"></path><path d="M461.02246 160.989194l-14.94527-62.739308h29.893504zM562.968648 160.989194l14.94527-62.739308H548.020413z" fill="#FFFFFF" p-id="2087"></path><path d="M572.13678 0a23.08484 23.08484 0 0 1-23.090769 23.090769H474.953989A23.08484 23.08484 0 0 1 451.86322 0h120.27356z" fill="#BF9B5F" p-id="2088"></path><path d="M539.285048 23.090769a17.005358 17.005358 0 1 1 0 34.007752h-54.567132a17.002394 17.002394 0 1 1 0-34.007752h54.567132z" fill="#BF9B5F" p-id="2089"></path></svg>