<svg xmlns="http://www.w3.org/2000/svg" width="200" height="200" class="icon" viewBox="0 0 1024 1024"><path d="M217.358 979.883c-58.154 0-97.678-46.72-97.678-116.253V160.356c0-69.533 39.524-116.253 97.707-116.253 22.229 0 45.696 6.898 69.262 20.494l553.586 352.285c40.917 23.594 64.085 57.628 64.085 95.175 0 37.518-23.04 71.495-64.939 95.701L287.66 958.763c-24.619 14.236-48.057 21.12-70.3 21.12zm.029-878.877c-36.452 0-40.818 41.515-40.818 59.364v703.274c0 17.85 4.38 59.364 40.79 59.364 11.946 0 26.21-4.452 40.817-12.871l551.637-351.005c24.263-14.037 37.632-30.961 37.632-47.06 0-16.143-13.326-33.096-36.608-46.536l-553.7-352.284c-13.553-7.794-27.79-12.246-39.75-12.246z"/><path d="M500.096 696.249a14.236 14.236 0 0 1-7.609-26.269l7.68-4.835a14.222 14.222 0 0 1 15.161 24.078l-7.68 4.836a14.123 14.123 0 0 1-7.552 2.19zM291.755 827.292a14.208 14.208 0 0 1-7.595-26.268l159.616-100.409a14.222 14.222 0 0 1 15.147 24.078l-159.616 100.41a14.165 14.165 0 0 1-7.552 2.19z"/></svg>