<?xml version="1.0" standalone="no"?><!DOCTYPE svg PUBLIC "-//W3C//DTD SVG 1.1//EN" "http://www.w3.org/Graphics/SVG/1.1/DTD/svg11.dtd"><svg t="1670415718730" class="icon" viewBox="0 0 1024 1024" version="1.1" xmlns="http://www.w3.org/2000/svg" p-id="3597" xmlns:xlink="http://www.w3.org/1999/xlink" width="200" height="200"><path d="M316.128441 393.000074c-32.818711 32.821414-86.02984 32.821414-118.853957 0L0 195.722887c58.466016-58.466016 153.259406-58.466016 211.725421 0l150.84551 150.840103-46.44249 46.437084z" fill="#00833E" p-id="3598"></path><path d="M20.522169 178.606663l195.574215 195.574214c22.425173 22.425173 58.787688 22.425173 81.215564 0.002704l46.439786-46.439787 18.8219 18.819196-46.44249 46.437084c-32.818711 32.821414-86.02984 32.821414-118.853957 0L0 195.722887a150.402196 150.402196 0 0 1 20.522169-17.116224z" fill="#006931" p-id="3599"></path><path d="M221.70538 294.411488m-18.175851 0a18.175851 18.175851 0 1 0 36.351702 0 18.175851 18.175851 0 1 0-36.351702 0Z" fill="#006931" p-id="3600"></path><path d="M184.983348 219.134702m-11.682931 0a11.682931 11.682931 0 1 0 23.365862 0 11.682931 11.682931 0 1 0-23.365862 0Z" fill="#006931" p-id="3601"></path><path d="M91.344195 202.610464m-20.124808 0a20.124809 20.124809 0 1 0 40.249617 0 20.124809 20.124809 0 1 0-40.249617 0Z" fill="#006931" p-id="3602"></path><path d="M728.063946 700.79206c-32.824117 32.818711-32.824117 86.02984 0 118.853957l197.274484 197.274484c58.466016-58.466016 58.466016-153.259406 0-211.725422l-150.840104-150.845509-46.43438 46.44249z" fill="#00833E" p-id="3603"></path><path d="M942.454654 996.398332l-195.574215-195.574215c-22.425173-22.425173-22.425173-58.787688-0.002703-81.215564l46.439787-46.439787-18.819197-18.821899-46.437083 46.442489c-32.824117 32.818711-32.824117 86.02984 0 118.853957l197.274484 197.274484a149.850758 149.850758 0 0 0 17.118927-20.519465z" fill="#006931" p-id="3604"></path><path d="M826.652532 795.215121m-18.175852 0a18.175851 18.175851 0 1 0 36.351703 0 18.175851 18.175851 0 1 0-36.351703 0Z" fill="#006931" p-id="3605"></path><path d="M901.929317 831.937152m-11.682931 0a11.682931 11.682931 0 1 0 23.365863 0 11.682931 11.682931 0 1 0-23.365863 0Z" fill="#006931" p-id="3606"></path><path d="M918.453556 925.576305m-20.124809 0a20.124809 20.124809 0 1 0 40.249617 0 20.124809 20.124809 0 1 0-40.249617 0Z" fill="#006931" p-id="3607"></path><path d="M295.936054 700.79206c32.824117 32.818711 32.824117 86.02984 0 118.853957l-197.274484 197.274484c-58.466016-58.466016-58.466016-153.259406 0-211.725422l150.840104-150.845509 46.43438 46.44249z" fill="#00833E" p-id="3608"></path><path d="M81.545346 996.398332l195.574215-195.574215c22.425173-22.425173 22.425173-58.787688 0.002703-81.215564l-46.439787-46.439787 18.819197-18.821899 46.437083 46.442489c32.824117 32.818711 32.824117 86.02984 0 118.853957L98.664273 1016.917797a149.850758 149.850758 0 0 1-17.118927-20.519465z" fill="#006931" p-id="3609"></path><path d="M197.350172 795.215121m-18.175852 0a18.175851 18.175851 0 1 0 36.351703 0 18.175851 18.175851 0 1 0-36.351703 0Z" fill="#006931" p-id="3610"></path><path d="M122.070683 831.937152m-11.682932 0a11.682931 11.682931 0 1 0 23.365863 0 11.682931 11.682931 0 1 0-23.365863 0Z" fill="#006931" p-id="3611"></path><path d="M105.546444 925.576305m-20.124808 0a20.124809 20.124809 0 1 0 40.249617 0 20.124809 20.124809 0 1 0-40.249617 0Z" fill="#006931" p-id="3612"></path><path d="M707.871559 393.000074c32.818711 32.821414 86.02984 32.821414 118.853957 0l197.274484-197.277187c-58.466016-58.466016-153.259406-58.466016-211.725421 0l-150.84551 150.840103 46.44249 46.437084z" fill="#00833E" p-id="3613"></path><path d="M1003.480534 178.606663l-195.574214 195.574214c-22.425173 22.425173-58.787688 22.425173-81.215564 0.002704l-46.439787-46.439787-18.8219 18.819196 46.44249 46.437084c32.818711 32.821414 86.02984 32.821414 118.853957 0l197.274484-197.277187a150.383274 150.383274 0 0 0-20.519466-17.116224z" fill="#006931" p-id="3614"></path><path d="M802.297323 294.411488m-18.175851 0a18.175851 18.175851 0 1 0 36.351703 0 18.175851 18.175851 0 1 0-36.351703 0Z" fill="#006931" p-id="3615"></path><path d="M839.019355 219.134702m-11.682931 0a11.682931 11.682931 0 1 0 23.365862 0 11.682931 11.682931 0 1 0-23.365862 0Z" fill="#006931" p-id="3616"></path><path d="M932.658508 202.610464m-20.124809 0a20.124809 20.124809 0 1 0 40.249618 0 20.124809 20.124809 0 1 0-40.249618 0Z" fill="#006931" p-id="3617"></path><path d="M562.051169 889.151618c7.441719-19.032744-3.192397-34.608183-23.628066-34.608183h-52.846206c-20.435669 0-31.067082 15.572736-23.625363 34.608183l36.524703 93.447231c7.439016 19.032744 19.613917 19.032744 27.052933 0l36.521999-93.447231z" fill="#006931" p-id="3618"></path><path d="M512 7.079499c-62.642353 0-113.42607 50.783718-113.42607 113.426071v191.27083h226.85214V120.50557c0-62.639649-50.781015-113.42607-113.42607-113.426071z" fill="#00833E" p-id="3619"></path><path d="M427.683945 117.545642m-13.550795 0a13.550795 13.550795 0 1 0 27.101589 0 13.550795 13.550795 0 1 0-27.101589 0Z" fill="#333E48" p-id="3620"></path><path d="M596.318758 117.545642m-13.550794 0a13.550795 13.550795 0 1 0 27.101589 0 13.550795 13.550795 0 1 0-27.101589 0Z" fill="#333E48" p-id="3621"></path><path d="M512 919.02662c-169.221393 0-306.891843-137.67045-306.891843-306.891844v-103.886722c0-169.221393 137.673153-306.891843 306.891843-306.891843 169.221393 0 306.891843 137.67045 306.891843 306.891843v103.886722c0 169.21869-137.667747 306.891843-306.891843 306.891844z" fill="#6BB587" p-id="3622"></path><path d="M512 243.473692c-146.231266 0-264.771659 118.540394-264.771659 264.774362v103.886722c0 146.231266 118.543097 264.774362 264.771659 264.774363s264.771659-118.543097 264.771659-264.774363v-103.886722c0-146.231266-118.540394-264.774362-264.771659-264.774362z" fill="#00833E" p-id="3623"></path><path d="M776.771659 545.44854h-239.237886l140.530363-243.408817a265.306879 265.306879 0 0 0-24.060567-17.29463L512 530.705665l-142.003569-245.960572a264.928441 264.928441 0 0 0-24.060567 17.29463l140.530363 243.408817H247.228341v29.483048h239.237886l-140.530363 243.408816a265.685318 265.685318 0 0 0 24.060567 17.294631l142.003569-245.960572 142.003569 245.960572a265.07441 265.07441 0 0 0 24.060567-17.294631l-140.530363-243.408816h239.237886v-29.483048z" fill="#006931" p-id="3624"></path><path d="M447.768207 671.444169l-64.229091-111.255457 64.229091-111.252753h128.463586l64.231794 111.252753-64.231794 111.255457z" fill="#006931" p-id="3625"></path></svg>